<?xml version="1.0" encoding="UTF-8"?>
<svg width="200" height="200" viewBox="0 0 200 200" fill="none" xmlns="http://www.w3.org/2000/svg">
    <!-- Background Circle -->
    <circle cx="100" cy="100" r="90" fill="#FFF5F5"/>
    
    <!-- Cart Body -->
    <path d="M160 70H40C37.2386 70 35 72.2386 35 75V145C35 147.761 37.2386 150 40 150H160C162.761 150 165 147.761 165 145V75C165 72.2386 162.761 70 160 70Z" fill="white" stroke="#ff523b" stroke-width="4"/>
    
    <!-- Cart Wheels -->
    <circle cx="50" cy="145" r="15" fill="#ff523b" opacity="0.2"/>
    <circle cx="150" cy="145" r="15" fill="#ff523b" opacity="0.2"/>
    
    <!-- Cart Handle -->
    <path d="M40 70L35 50H165L160 70" stroke="#ff523b" stroke-width="4"/>
    
    <!-- Empty State Icon -->
    <circle cx="100" cy="110" r="30" fill="#ff523b" opacity="0.1"/>
    <path d="M85 110H115M100 95V125" stroke="#ff523b" stroke-width="4" stroke-linecap="round"/>
    
    <!-- Decorative Elements -->
    <circle cx="100" cy="110" r="40" stroke="#ff523b" stroke-width="2" stroke-dasharray="4 4" opacity="0.3"/>
    
    <!-- Shopping Bag Icon -->
    <path d="M90 85C90 82.2386 92.2386 80 95 80H105C107.761 80 110 82.2386 110 85V95H90V85Z" fill="#ff523b" opacity="0.2"/>
    <path d="M85 95H115V125C115 127.761 112.761 130 110 130H90C87.2386 130 85 127.761 85 125V95Z" fill="#ff523b" opacity="0.2"/>
    
    <!-- Sparkle Effects -->
    <path d="M70 60L75 65L80 60L75 55L70 60Z" fill="#ff523b" opacity="0.3"/>
    <path d="M120 60L125 65L130 60L125 55L120 60Z" fill="#ff523b" opacity="0.3"/>
    <path d="M95 40L100 45L105 40L100 35L95 40Z" fill="#ff523b" opacity="0.3"/>
</svg> 